<?xml version="1.0" standalone="no"?>
<!DOCTYPE svg PUBLIC "-//W3C//DTD SVG 20010904//EN"
 "http://www.w3.org/TR/2001/REC-SVG-20010904/DTD/svg10.dtd">
<svg version="1.0" xmlns="http://www.w3.org/2000/svg"
 width="180.000000pt" height="180.000000pt" viewBox="0 0 180.000000 180.000000"
 preserveAspectRatio="xMidYMid meet">

<g transform="translate(0.000000,180.000000) scale(0.100000,-0.100000)"
fill="#000000" stroke="none">
<path d="M295 1786 c-141 -45 -241 -145 -280 -277 -14 -50 -15 -126 -13 -630
l3 -574 32 -67 c44 -93 100 -151 191 -196 l76 -37 595 0 596 0 67 32 c93 44
151 100 196 191 l37 76 0 596 0 596 -37 76 c-45 91 -103 147 -196 191 l-67 32
-580 2 c-449 2 -589 -1 -620 -11z m794 -390 c184 -47 318 -188 352 -371 16
-86 6 -236 -21 -314 -29 -80 -100 -175 -168 -223 -114 -79 -243 -101 -567 -96
l-210 3 -3 500 c-1 275 0 506 3 514 8 20 524 9 614 -13z"/>
<path d="M700 906 l0 -306 135 0 c161 0 219 17 288 84 65 63 90 136 85 246 -6
126 -53 201 -157 252 -40 20 -65 23 -198 26 l-153 4 0 -306z"/>
</g>
</svg>
